<svg version="1.1" viewBox="0.0 0.0 960.0 540.0" fill="none" stroke="none" stroke-linecap="square" stroke-miterlimit="10" xmlns:xlink="http://www.w3.org/1999/xlink" xmlns="http://www.w3.org/2000/svg"><clipPath id="p.0"><path d="m0 0l960.0 0l0 540.0l-960.0 0l0 -540.0z" clip-rule="nonzero"/></clipPath><g clip-path="url(#p.0)"><path fill="#1b212c" d="m0 0l960.0 0l0 540.0l-960.0 0z" fill-rule="evenodd"/><path fill="#ffffff" fill-opacity="0.0346" d="m474.8664 539.98224l-474.90457 -245.896l0 -251.17488l960.00433 497.07086z" fill-rule="evenodd"/><path fill="#ffffff" fill-opacity="0.0346" d="m2.0844328 539.98224l0 0l0 -451.3071l868.6362 451.3071z" fill-rule="evenodd"/><path fill="#ffffff" fill-opacity="0.0731" d="m632.4269 325.23773l81.94568 42.456696l0 42.456696l-163.89136 -84.91339z" fill-rule="evenodd"/><path fill="#ffffff" fill-opacity="0.0731" d="m503.5797 345.91632l81.94568 42.456696l81.94568 0l-163.89136 -84.91339z" fill-rule="evenodd"/><path fill="#ffffff" fill-opacity="0.0731" d="m557.719 195.77829l81.94568 42.456696l0 42.456696l-163.89133 -84.91339z" fill-rule="evenodd"/><path fill="#ffffff" fill-opacity="0.0731" d="m428.1472 216.4569l81.94568 42.45668l81.94565 0l-163.89133 -84.913376z" fill-rule="evenodd"/><path fill="#ffffff" fill-opacity="0.0731" d="m418.25323 259.55768l81.94565 42.456696l0 42.456696l-163.89133 -84.91339z" fill-rule="evenodd"/><path fill="#ffffff" fill-opacity="0.0731" d="m380.60376 194.9021l81.94568 42.456696l0 42.456696l-163.89133 -84.91339z" fill-rule="evenodd"/><path fill="#ffffff" fill-opacity="0.0731" d="m74.923386 214.77583l81.94566 42.45668l81.94566 0l-163.89133 -84.913376z" fill-rule="evenodd"/><path fill="#ffffff" fill-opacity="0.0731" d="m38.486416 150.12024l81.94566 42.45668l81.94567 0l-163.89133 -84.91338z" fill-rule="evenodd"/><path fill="#ffffff" fill-opacity="0.0731" d="m342.8207 130.09825l81.94565 42.456696l0 42.456696l-163.89133 -84.91339z" fill-rule="evenodd"/><path fill="#ffffff" fill-opacity="0.0731" d="m214.46144 150.77686l81.94566 42.456696l81.94568 0l-163.89134 -84.91339z" fill-rule="evenodd"/><path fill="#ffffff" fill-opacity="0.0731" d="m176.812 86.1213l81.94566 42.456688l81.94565 0l-163.89131 -84.91338z" fill-rule="evenodd"/><path fill="#ffffff" fill-opacity="0.0731" d="m129.06259 64.63779l81.94566 42.456688l0 42.456703l-163.89133 -84.91339z" fill-rule="evenodd"/><path fill="#ffffff" fill-opacity="0.0731" d="m0.09702505 85.31638l81.94566 42.456696l81.94567 0l-163.89133 -84.91339z" fill-rule="evenodd"/><path fill="#ffffff" fill-opacity="0.0731" d="m91.41314 -0.017767979l81.945656 42.456696l0 42.456688l-163.89131 -84.91338z" fill-rule="evenodd"/></g></svg>